<svg xmlns="http://www.w3.org/2000/svg" viewBox="0 0 420 460"><defs><linearGradient id="g" x1="0" y1="0" x2="1" y2="1"><stop stop-color="#ffd36b"/><stop offset="1" stop-color="#ef8056"/></linearGradient></defs><ellipse cx="210" cy="425" rx="120" ry="18" fill="#241747" opacity=".2"/><path d="M120 180Q88 245 103 354Q128 413 210 416Q292 413 317 354Q332 245 300 180Z" fill="url(#g)" stroke="#a95148" stroke-width="9"/><circle cx="210" cy="150" r="112" fill="#ffd375" stroke="#a95148" stroke-width="9"/><path d="M112 85Q150 28 184 67Q220 20 250 67Q286 34 316 88" fill="#e75467" stroke="#a5415a" stroke-width="8"/><path d="M105 120Q73 110 72 147Q75 176 109 166M315 120Q347 110 348 147Q345 176 311 166" fill="#ffd375" stroke="#a95148" stroke-width="8"/><g fill="#352550"><ellipse cx="176" cy="145" rx="18" ry="24"/><ellipse cx="244" cy="145" rx="18" ry="24"/></g><circle cx="182" cy="138" r="5" fill="#fff"/><circle cx="250" cy="138" r="5" fill="#fff"/><path d="M180 194Q210 215 240 194" fill="none" stroke="#914d55" stroke-width="9" stroke-linecap="round"/><path d="M126 250Q72 270 82 330M294 250Q348 270 338 330" fill="none" stroke="#a95148" stroke-width="23" stroke-linecap="round"/><path d="M160 388Q148 430 180 445M260 388Q272 430 240 445" fill="none" stroke="#a95148" stroke-width="23" stroke-linecap="round"/></svg>