<svg xmlns="http://www.w3.org/2000/svg" viewBox="0 0 900 520"><defs><linearGradient id="sky" x2="0" y2="1"><stop stop-color="#5c46a7"/><stop offset="1" stop-color="#f4a36f"/></linearGradient><linearGradient id="stall" x2="0" y2="1"><stop stop-color="#ffe7a1"/><stop offset="1" stop-color="#d88f58"/></linearGradient></defs><rect width="900" height="520" fill="url(#sky)"/><circle cx="740" cy="86" r="46" fill="#fff3ba" opacity=".9"/><path d="M0 365 Q180 330 340 370 T900 350 V520 H0Z" fill="#5b8157"/><path d="M95 188h300v218H95z" fill="#68406d"/><path d="M83 183h324l-27 71H108z" fill="#f7d66e"/><path d="M105 183h50l-8 71h-50zm96 0h50l-3 71h-50zm96 0h50l3 71h-50" fill="#9b4f86"/><rect x="124" y="267" width="241" height="113" rx="12" fill="url(#stall)"/><rect x="520" y="215" width="250" height="170" rx="22" fill="#4c3c7d"/><path d="M505 221h281l-25-60H530z" fill="#73b3a0"/><circle cx="578" cy="304" r="22" fill="#d84d56"/><circle cx="632" cy="300" r="22" fill="#d84d56"/><rect x="681" y="284" width="44" height="31" rx="8" fill="#f1c784"/><path d="M0 438 Q220 396 440 438 T900 420V520H0Z" fill="#d9c0a0"/><g fill="#fff" opacity=".65"><circle cx="80" cy="90" r="3"/><circle cx="170" cy="62" r="2"/><circle cx="460" cy="92" r="3"/><circle cx="825" cy="130" r="2"/></g></svg>