<svg xmlns="http://www.w3.org/2000/svg" viewBox="0 0 720 420"><defs>
<linearGradient id="night" x1="0" y1="0" x2="0" y2="1"><stop stop-color="#26175d"/><stop offset="1" stop-color="#7042b7"/></linearGradient>
<linearGradient id="gold" x1="0" y1="0" x2="1" y2="1"><stop stop-color="#ffe39a"/><stop offset="1" stop-color="#f0a928"/></linearGradient>
<linearGradient id="purple" x1="0" y1="0" x2="1" y2="1"><stop stop-color="#9d78ff"/><stop offset="1" stop-color="#5534a4"/></linearGradient>
<filter id="glow"><feGaussianBlur stdDeviation="4" result="b"/><feMerge><feMergeNode in="b"/><feMergeNode in="SourceGraphic"/></feMerge></filter>
</defs><rect width="720" height="420" fill="#3a2768"/><rect y="287" width="720" height="133" fill="#5a3b33"/><path d="M0 320 H720 M0 365 H720" stroke="#83554a" stroke-width="4"/><rect x="44" y="70" width="170" height="145" rx="10" fill="#1d173f" stroke="#ab8ad9" stroke-width="8"/><circle cx="158" cy="117" r="33" fill="#fff0b1"/><path d="M49 186 Q111 150 210 191" fill="#2d1f55"/><rect x="483" y="88" width="128" height="197" rx="8" fill="#2a1c4d" stroke="#aa82d7" stroke-width="7"/><path d="M527 88 V285" stroke="#aa82d7" stroke-width="6"/><circle cx="585" cy="190" r="7" fill="#ffd66d"/><rect x="270" y="238" width="185" height="24" rx="8" fill="#8c5d42"/><rect x="295" y="260" width="18" height="91" fill="#6f4936"/><rect x="413" y="260" width="18" height="91" fill="#6f4936"/><rect x="337" y="267" width="62" height="77" rx="7" fill="#7146a9"/><path d="M349 291 H387" stroke="#ffd66d" stroke-width="6"/><g filter="url(#glow)"><circle cx="244" cy="161" r="6" fill="#ffd66d"/><circle cx="456" cy="123" r="5" fill="#e6b6ff"/><circle cx="642" cy="214" r="5" fill="#8af0ff"/></g></svg>
